<svg width="1080" height="1920" viewBox="0 0 1080 1920" xmlns="http://www.w3.org/2000/svg">
  <defs>
    <linearGradient id="grid-gradient" x1="0%" y1="0%" x2="0%" y2="100%">
      <stop offset="0%" stop-color="#1f2937" />
      <stop offset="100%" stop-color="#111827" />
    </linearGradient>
    <radialGradient id="grid-spot" cx="75%" cy="25%" r="50%">
      <stop offset="0%" stop-color="rgba(76, 29, 149, 0.85)" />
      <stop offset="100%" stop-color="rgba(15, 23, 42, 0)" />
    </radialGradient>
  </defs>
  <rect width="1080" height="1920" fill="url(#grid-gradient)" />
  <rect width="1080" height="1920" fill="url(#grid-spot)" />
  <g stroke="rgba(148, 163, 184, 0.16)" stroke-width="1">
    <path d="M0 160 H1080" />
    <path d="M0 320 H1080" />
    <path d="M0 480 H1080" />
    <path d="M0 640 H1080" />
    <path d="M0 800 H1080" />
    <path d="M0 960 H1080" />
    <path d="M0 1120 H1080" />
    <path d="M0 1280 H1080" />
    <path d="M0 1440 H1080" />
    <path d="M0 1600 H1080" />
    <path d="M0 1760 H1080" />
  </g>
  <g stroke="rgba(148, 163, 184, 0.16)" stroke-width="1">
    <path d="M180 0 V1920" />
    <path d="M360 0 V1920" />
    <path d="M540 0 V1920" />
    <path d="M720 0 V1920" />
    <path d="M900 0 V1920" />
  </g>
</svg>
